<svg version="1.1" xmlns="http://www.w3.org/2000/svg" xmlns:xlink="http://www.w3.org/1999/xlink" width="56.13145" height="46.16844" viewBox="0,0,56.13145,46.16844"><defs><linearGradient x1="212.9893" y1="180.18378" x2="268.12075" y2="180.18378" gradientUnits="userSpaceOnUse" id="color-1"><stop offset="0" stop-color="#edeb2b"/><stop offset="1" stop-color="#ed2b2b"/></linearGradient></defs><g transform="translate(-212.4893,-157.09956)"><g data-paper-data="{&quot;isPaintingLayer&quot;:true}" fill="url(#color-1)" fill-rule="nonzero" stroke="#000000" stroke-width="1" stroke-linecap="butt" stroke-linejoin="miter" stroke-miterlimit="10" stroke-dasharray="" stroke-dashoffset="0" font-family="none" font-weight="none" font-size="none" text-anchor="none" style="mix-blend-mode: normal"><path d="M251.265,185.1885c0,0 -22.9255,0.0097 -33.3375,0.0097c-2.7274,0 -4.9382,-2.2113 -4.9382,-4.9382c0,-2.7274 2.2108,-4.9378 4.9382,-4.9378c8.7293,0 33.3107,-0.0102 33.3107,-0.0102c0,0 -1.6503,-1.6701 -9.2636,-9.2829c-1.9286,-1.9287 -1.9286,-5.055 0,-6.9832c1.9296,-1.9282 5.0555,-1.9287 6.9837,0c6.1733,6.1724 17.7163,17.7167 17.7163,17.7167c1.9282,1.9287 1.9282,5.0554 0,6.9832c0,0 -9.9613,9.9617 -17.5745,17.575c-1.9296,1.9296 -5.0559,1.9296 -6.9837,0c-1.9287,-1.9283 -1.9287,-5.0555 0,-6.9823c6.1734,-6.1752 9.1486,-9.15 9.1486,-9.15z" data-paper-data="{&quot;origPos&quot;:null}" id="ID0.6278323931619525"/></g></g></svg>