<svg version="1.1" xmlns="http://www.w3.org/2000/svg" xmlns:xlink="http://www.w3.org/1999/xlink" width="56.13098" height="46.16871" viewBox="0,0,56.13098,46.16871"><defs><linearGradient x1="268.12122" y1="180.3129" x2="212.99038" y2="180.05469" gradientUnits="userSpaceOnUse" id="color-1"><stop offset="0" stop-color="#2bd8ed"/><stop offset="1" stop-color="#502bed"/></linearGradient></defs><g transform="translate(-212.49066,-157.0761)"><g data-paper-data="{&quot;isPaintingLayer&quot;:true}" fill="url(#color-1)" fill-rule="nonzero" stroke="#000000" stroke-width="1" stroke-linecap="butt" stroke-linejoin="miter" stroke-miterlimit="10" stroke-dasharray="" stroke-dashoffset="0" font-family="none" font-weight="none" font-size="none" text-anchor="none" style="mix-blend-mode: normal"><path d="M229.86938,175.12897c0,0 22.92529,0.09768 33.33718,0.14644c2.72737,0.01277 4.92779,2.2344 4.91502,4.96127c-0.01277,2.72737 -2.2339,4.92739 -4.96127,4.91462c-8.7292,-0.04089 -33.31038,-0.14582 -33.31038,-0.14582c0,0 1.64246,1.67781 9.22002,9.32619c1.91955,1.93771 1.9049,5.06398 -0.03271,6.98312c-1.93861,1.91914 -5.06448,1.905 -6.98362,-0.03271c-6.14432,-6.20125 -17.63313,-17.79948 -17.63313,-17.79948c-1.91915,-1.93771 -1.9045,-5.06438 0.03271,-6.98312c0,0 10.00785,-9.91494 17.65662,-17.49249c1.93862,-1.92054 5.06488,-1.9059 6.98362,0.03271c1.91965,1.93731 1.905,5.06448 -0.0327,6.98222c-6.20225,6.14622 -9.19136,9.10705 -9.19136,9.10705z" data-paper-data="{&quot;origPos&quot;:null,&quot;origRot&quot;:0}" id="ID0.6278323931619525"/></g></g></svg>